# xmcd
#
# Track frame offsets:
#	150
#	8885
#	20606
#	32054
#	43670
#	56929
#	70815
#	83410
#	101984
#	111671
#	129766
#	146179
#	162784
#	173350
#	190054
#	202845
#	217753
#	225739
#	238049
#	250863
#
# Disc length: 3481 seconds
#
# Revision: 0
# Processed by: cddbd v1.4PL0 Copyright (c) Steve Scherf et al.
# Submitted via: audiograbber 1.81.03
#
DISCID=0c0d9714
DTITLE=Johnny Cash - A Free Man (LP)
DYEAR=1900
DGENRE=
TTITLE0=Folsom Prison Blues
TTITLE1=Ring Of Fire
TTITLE2=In Them Old Cotton Fields Back Home
TTITLE3=I Walk The Line
TTITLE4=If I Were A Carpenter
TTITLE5=Orange Blossom Special
TTITLE6=Jackson
TTITLE7=Sunday Morning Coming Down
TTITLE8=Five Feet High And Rising
TTITLE9=One Piece At Time
TTITLE10=(Ghost) Riders In The Sky
TTITLE11=City Of New Orleans
TTITLE12=Daddy Sang Bass
TTITLE13=A Boy Named Sue
TTITLE14=San Quentin
TTITLE15=The Night They Drove Old Dixie Down
TTITLE16=Reason To Believe
TTITLE17=The Lady Came From BaltimoreTrack 18
TTITLE18=Man In Black
TTITLE19=Bonanza
EXTD=
EXTT0=
EXTT1=
EXTT2=
EXTT3=
EXTT4=
EXTT5=
EXTT6=
EXTT7=
EXTT8=
EXTT9=
EXTT10=
EXTT11=
EXTT12=
EXTT13=
EXTT14=
EXTT15=
EXTT16=
EXTT17=
EXTT18=
EXTT19=
PLAYORDER=
